<?xml version="1.0" encoding="UTF-8" standalone="no"?>
<svg
   width="190mm"
   height="150mm"
   viewBox="0 0 190 150"
   version="1.1"
   id="svg1"
   xmlns="http://www.w3.org/2000/svg">
  <g id="layer1">
    <path
       d="m 119.23594,108.22617 h 8.1792 l -2.2629,5.3434 h -3.0937 z"
       style="fill:#348cc4;fill-opacity:1;stroke:#348cc4;stroke-width:0.573867;stroke-opacity:1;paint-order:stroke"
       id="path21-9-6-5" />
    <path
       d="m 113.72604,97.796363 h 18.1064 l -2.2631,5.343707 h -13.0201 z"
       style="fill:#348cc4;fill-opacity:1;stroke:#348cc4;stroke-width:0.573867;stroke-opacity:1;paint-order:stroke"
       id="path20-4-0-5" />
    <path
       d="m 108.21634,87.366563 h 27.9503 l -2.4444,5.3436 h -22.683 z"
       style="fill:#348cc4;fill-opacity:1;stroke:#348cc4;stroke-width:0.573867;stroke-opacity:1;paint-order:stroke"
       id="path19-7-0-4" />
    <path
       d="m 102.70724,76.936763 h 37.9595 l -2.263,5.3439 h -32.8739 z"
       style="fill:#348cc4;fill-opacity:1;stroke:#348cc4;stroke-width:0.573867;stroke-opacity:1;paint-order:stroke"
       id="path18-0-9-2" />
    <path
       d="m 112.09404,66.507263 h 32.9902 l -2.2634,5.3436 h -32.8395 z"
       style="fill:#348cc4;fill-opacity:1;stroke:#348cc4;stroke-width:0.573867;stroke-opacity:1;paint-order:stroke"
       id="path17-1-5-1" />
    <path
       d="m 116.11204,35.218163 h 42.2233 l -2.263,5.3437 h -42.073 z"
       style="fill:#348cc4;fill-opacity:1;stroke:#348cc4;stroke-width:0.573867;stroke-opacity:1;paint-order:stroke"
       id="path15-5-2-2" />
    <path
       d="m 141.11654,24.788363 h 21.636 l -2.2628,5.3436 h -21.4858 z"
       style="fill:#348cc4;fill-opacity:1;stroke:#348cc4;stroke-width:0.573867;stroke-opacity:1;paint-order:stroke"
       id="path14-2-8-4" />
    <path
       d="m 117.72004,3.1005623 -24.281397,56.2918007 4.0567,7.6787 24.184697,-57.1045004 h 51.8818 l -30.6366,72.3384004 -16.6343,39.276507 3.9148,7.4106 16.7957,-38.938607 18.0547,-41.8571 19.4522,-45.0958007 z"
       style="fill:#348cc4;fill-opacity:1;stroke:#348cc4;stroke-width:0.573867;stroke-opacity:1;paint-order:stroke"
       id="path13-2-5-5" />
    <path
       d="M 5.1565401,3.0797623 C 33.27944,50.664263 59.77064,99.372166 86.82174,147.56997 h 35.3636 c 0,0 -77.4766,-144.4450077 -77.4639,-144.4900077 z"
       style="fill:#348cc4;fill-opacity:1;stroke:#348cc4;stroke-width:0.564796;stroke-opacity:1;paint-order:stroke"
       id="path12-2-9-8" />
    <path
       d="m 112.02194,45.912963 h 42.2233 l -2.263,5.3437 h -42.073 z"
       style="fill:#348cc4;fill-opacity:1;stroke:#348cc4;stroke-width:0.573867;stroke-opacity:1;paint-order:stroke"
       id="path15-5-2-2-7" />
  </g>
</svg>
